<svg id="Calque_1" data-name="Calque 1" xmlns="http://www.w3.org/2000/svg" viewBox="0 0 573.46 218.12">
    <defs>
        <style>
            .cls-1 {
                fill: none;
            }
            .cls-1, .cls-2 {
                stroke: #838787;
                stroke-miterlimit: 10;
                stroke-width: 25px;
            }
            .cls-2 {
                fill: none;
            }
        </style>
    </defs>
    <path class="cls-1" d="M502.2,203.42l-436.7-2a8.11,8.11,0,0,0-7,4l-55.27,95a8.06,8.06,0,0,0,0,8.14l55.3,95a8.08,8.08,0,0,0,7,4l436.69,2a8.11,8.11,0,0,0,7-4l55.28-95a8.11,8.11,0,0,0,0-8.14l-55.31-95A8.06,8.06,0,0,0,502.2,203.42Z" transform="translate(2.9 -196.46)"/>
    <line class="cls-2" x1="297.73" y1="114.63" x2="297.73" y2="208.05"/>
    <line class="cls-2" x1="567.36" y1="110.51" x2="5.67" y2="110.51"/>
</svg>
