<svg id="Calque_1" data-name="Calque 1" xmlns="http://www.w3.org/2000/svg" viewBox="0 0 401.09 578.31"><defs><style>.cls-1{fill:#222;stroke:#838787;stroke-miterlimit:10;stroke-width:20px;}.cls-2{font-size:409.84px;fill:#838787;font-family:SnellRoundhand-Black, Snell Roundhand;font-weight:800;}</style></defs><path class="cls-1" d="M78,75.31h313a0,0,0,0,1,0,0v493a0,0,0,0,1,0,0H78a29,29,0,0,1-29-29V104.26a29,29,0,0,1,29-29Z"/><path class="cls-1" d="M39,32.21H352a0,0,0,0,1,0,0v493a0,0,0,0,1,0,0H39a29,29,0,0,1-29-29V61.16a29,29,0,0,1,29-29Z"/><text class="cls-2" transform="translate(70.75 355.74) scale(0.92 1)">x</text></svg>